<svg xmlns="http://www.w3.org/2000/svg" width="1200" height="630" viewBox="0 0 1200 630">
  <defs>
    <linearGradient id="g" x1="0" y1="0" x2="1" y2="1">
      <stop offset="0%" stop-color="#243B5A"/>
      <stop offset="100%" stop-color="#2e4a71"/>
    </linearGradient>
  </defs>
  <rect width="1200" height="630" fill="url(#g)"/>
  <g stroke="#AFC8E8" opacity="0.22">
    <path d="M0 80h1200M0 160h1200M0 240h1200M0 320h1200M0 400h1200M0 480h1200M0 560h1200"/>
    <path d="M120 0v630M240 0v630M360 0v630M480 0v630M600 0v630M720 0v630M840 0v630M960 0v630M1080 0v630"/>
  </g>
  <text x="120" y="280" fill="#F7F3EB" font-size="78" font-family="Inter, sans-serif" font-weight="700">solution-architect-cv</text>
  <text x="120" y="355" fill="#D6A54B" font-size="40" font-family="Inter, sans-serif">Software &amp; Solutions Architect</text>
</svg>
